<?xml version="1.0" standalone="no"?>
<!DOCTYPE svg PUBLIC "-//W3C//DTD SVG 20010904//EN"
 "http://www.w3.org/TR/2001/REC-SVG-20010904/DTD/svg10.dtd">
<svg version="1.0" xmlns="http://www.w3.org/2000/svg"
 width="1125.000000pt" height="1125.000000pt" viewBox="0 0 1125.000000 1125.000000"
 preserveAspectRatio="xMidYMid meet">
<metadata>
Created by potrace 1.11, written by Peter Selinger 2001-2013
</metadata>
<g transform="translate(0.000000,1125.000000) scale(0.100000,-0.100000)"
fill="#000000" stroke="none">
<path d="M0 5625 l0 -5625 5625 0 5625 0 0 5625 0 5625 -5625 0 -5625 0 0
-5625z m4968 2105 c92 -41 132 -102 132 -203 0 -266 -428 -534 -934 -586 -54
-5 -99 -11 -101 -13 -1 -2 -16 -39 -33 -83 -118 -312 -237 -830 -372 -1620
-22 -132 -56 -323 -75 -425 -18 -102 -35 -196 -37 -210 l-3 -25 190 -7 c227
-7 279 -19 283 -63 2 -17 -3 -39 -11 -49 -13 -17 -31 -19 -253 -20 l-238 -1
-9 -45 c-20 -105 -100 -422 -129 -510 -150 -458 -406 -672 -751 -629 -96 12
-166 37 -247 90 -133 86 -217 187 -302 364 -48 103 -50 109 -33 122 18 12 23
6 64 -75 131 -252 286 -362 509 -362 258 1 428 134 543 428 39 101 139 471
154 575 l7 47 -88 0 c-171 0 -695 -38 -814 -59 -59 -10 -70 -5 -70 27 0 38 33
88 72 108 36 19 124 25 642 43 153 6 280 12 283 14 6 7 57 276 113 597 135
779 282 1336 445 1696 l33 72 -97 6 c-53 4 -204 14 -336 23 -345 24 -775 23
-930 -1 -609 -94 -1029 -372 -1260 -835 -120 -242 -174 -564 -146 -879 23
-255 70 -410 169 -560 33 -50 34 -54 18 -70 -16 -16 -19 -15 -47 18 -73 85
-160 308 -195 500 -22 117 -29 393 -15 515 70 593 411 1074 941 1329 402 193
738 230 1465 161 149 -14 324 -28 391 -32 l120 -6 61 104 c183 314 383 494
605 544 85 20 224 12 286 -15z m3038 -654 c76 -80 106 -213 125 -559 19 -324
-5 -690 -66 -1047 -45 -255 -148 -670 -251 -1004 l-47 -150 18 -80 c43 -206
137 -430 216 -520 75 -84 171 -112 248 -72 49 26 133 108 192 188 44 58 52 77
60 135 41 298 274 595 558 709 197 80 466 50 585 -64 93 -89 79 -156 -37 -177
-37 -7 -39 -6 -104 64 -75 81 -143 119 -227 128 -245 25 -515 -205 -592 -506
-24 -97 -16 -248 17 -321 36 -77 80 -123 141 -150 44 -19 65 -22 143 -18 104
4 169 30 243 95 l42 38 -10 60 c-21 128 -7 321 31 418 26 65 56 103 96 122 40
19 64 13 96 -25 32 -37 40 -97 27 -190 -13 -97 -32 -154 -88 -273 l-46 -97 30
-42 c81 -116 256 -151 401 -81 88 43 196 152 283 287 41 63 81 115 88 116 17
0 11 -19 -37 -130 -126 -290 -361 -487 -557 -467 -111 11 -226 88 -271 181
l-16 35 -66 -61 c-137 -129 -246 -180 -386 -182 -75 -1 -98 3 -137 22 -93 46
-166 146 -200 276 l-13 49 -39 -63 c-53 -86 -154 -190 -218 -225 -46 -26 -63
-29 -130 -29 -65 0 -86 5 -141 32 -116 57 -212 182 -292 379 l-43 104 -32 -58
c-122 -217 -270 -355 -431 -404 -100 -30 -242 -24 -315 14 -97 49 -155 119
-189 224 l-17 52 -47 -72 c-59 -89 -171 -196 -243 -231 -163 -80 -322 -45
-389 85 -29 58 -58 175 -66 274 l-8 90 -43 -78 c-244 -437 -642 -614 -777
-346 -55 107 -56 226 -4 562 44 288 42 335 -15 372 -19 13 -53 14 -217 8
l-195 -6 -13 -84 c-32 -226 -176 -591 -229 -581 -29 5 -24 41 17 131 79 173
134 360 147 504 l7 74 -42 35 c-52 45 -76 92 -92 176 -14 77 -6 147 22 182 28
35 90 36 124 2 27 -27 51 -102 60 -192 l7 -62 44 -7 c25 -3 97 -1 160 6 218
22 293 -1 339 -104 38 -84 38 -130 6 -422 -33 -299 -32 -360 11 -437 35 -65
92 -91 188 -85 60 3 87 10 130 33 77 41 208 170 278 272 87 128 92 140 92 230
0 163 34 397 67 468 20 40 50 45 100 14 56 -34 64 -55 48 -130 -25 -117 -37
-302 -33 -496 4 -164 7 -196 26 -245 81 -206 289 -160 497 111 29 37 45 69 45
87 0 53 30 156 69 237 133 279 418 484 701 503 l85 6 0 431 c1 315 6 488 18
642 51 623 119 987 224 1199 54 107 108 155 177 155 34 0 46 -7 82 -44z
m-1858 -1716 c44 -27 65 -79 65 -160 1 -107 -49 -169 -143 -178 -52 -5 -90 10
-130 53 -21 22 -25 38 -28 99 -4 77 13 131 55 168 46 42 129 50 181 18z"/>
<path d="M4575 7572 c-117 -40 -225 -133 -322 -275 -45 -65 -113 -181 -113
-193 0 -6 110 4 245 22 190 26 382 101 469 182 36 34 76 117 76 160 0 50 -16
71 -73 98 -66 30 -203 33 -282 6z"/>
<path d="M7830 6948 c-50 -83 -102 -449 -125 -883 -4 -66 -8 -145 -11 -175 -2
-30 -6 -206 -10 -390 -8 -405 7 -693 53 -975 l7 -40 13 45 c103 345 167 646
207 975 27 218 33 319 35 600 3 477 -33 780 -101 852 -29 31 -45 29 -68 -9z"/>
<path d="M4540 4768 c0 -7 5 -20 10 -28 8 -12 10 -11 10 7 0 12 -4 25 -10 28
-5 3 -10 0 -10 -7z"/>
<path d="M7345 4570 c-97 -11 -149 -26 -228 -68 -181 -94 -286 -284 -275 -493
9 -145 81 -262 190 -309 75 -32 181 -26 261 15 103 52 202 165 281 323 l27 54
-20 86 c-11 48 -29 152 -40 231 -12 88 -25 147 -33 152 -7 5 -25 9 -40 9 -14
0 -32 2 -40 4 -7 2 -44 0 -83 -4z"/>
<path d="M9368 4218 c-18 -36 -23 -63 -26 -161 -2 -64 -1 -130 3 -145 7 -26 8
-26 31 23 52 110 72 315 32 323 -11 2 -24 -11 -40 -40z"/>
</g>
</svg>
