<?xml version="1.0" encoding="utf-8"?>
<!-- Generator: Adobe Illustrator 19.2.1, SVG Export Plug-In . SVG Version: 6.00 Build 0)  -->
<svg version="1.0" id="Ebene_1" xmlns="http://www.w3.org/2000/svg" xmlns:xlink="http://www.w3.org/1999/xlink" x="0px" y="0px"
	 viewBox="0 0 186.3 95.3" enable-background="new 0 0 186.3 95.3" xml:space="preserve">
<g>
	<path d="M51.2,65.8c0.7-3.9,1.5-7.9,2.2-12.1c0.7-4.2,1.5-8.4,2.3-12.6c0.8-4.2,1.7-8.2,2.7-12c1-3.9,2.1-7.4,3.3-10.5
		c3-0.2,5.8-0.6,8.3-1.4c2.5-0.8,4.7-1.7,6.6-2.8c1.8-1.1,3.3-2.4,4.3-3.7c1-1.4,1.5-2.7,1.5-4c0-1.1-0.5-2.2-1.4-3.1
		c-0.9-0.9-2.5-1.4-4.7-1.4c-1.6,0-3.1,0.3-4.5,0.9c-1.4,0.6-2.8,1.5-4,2.7c-1.3,1.1-2.5,2.5-3.7,4.1c-1.2,1.6-2.3,3.4-3.3,5.4h-1.4
		c-1.1,0-2.4-0.1-4-0.2c-1.5-0.1-3.2-0.3-5-0.5c-1.8-0.2-3.7-0.3-5.7-0.5c-2-0.1-4-0.2-6.1-0.2c-5,0-9.8,0.8-14.2,2.5
		c-4.4,1.7-8.3,4-11.5,7C9.6,26.4,7,30,5.2,34.2C3.3,38.4,2.3,43,2.3,48.1c0,2.3,0.2,4.4,0.5,6.2c0.3,1.8,0.7,3.5,1.2,4.9
		c0.5,1.4,1,2.6,1.6,3.6c0.6,1,1.1,1.8,1.7,2.4L8,64.4c-0.5-0.6-1-1.3-1.5-2.2c-0.5-0.9-1-1.9-1.4-3.2c-0.4-1.3-0.7-2.7-1-4.4
		c-0.3-1.7-0.4-3.6-0.4-5.7c0-5.3,0.9-9.9,2.8-13.8c1.9-3.9,4.4-7.2,7.6-9.8c3.2-2.6,6.9-4.5,11.2-5.8c4.3-1.3,8.8-1.9,13.6-1.9
		c1.8,0,3.6,0.1,5.5,0.1c1.9,0.1,3.7,0.2,5.5,0.3c1.8,0.1,3.4,0.2,5,0.3c1.6,0.1,2.9,0.1,4.1,0.1c-2.1,4.6-3.9,9.7-5.3,15.3
		S51,45.3,50,51.3c-0.5,2.8-0.9,5.4-1.4,7.8c-0.4,2.4-0.9,4.6-1.3,6.8c-1.9,0-3.8,0.1-5.5,0.1c-1.8,0.1-3.4,0.1-4.8,0.2
		c-1.4,0.1-2.7,0.1-3.8,0.2c-1.1,0.1-2,0.1-2.6,0.1c-1,0-1.8,0.3-2.4,0.9c-0.6,0.6-0.9,1.2-0.9,1.6c0,0.5,0.2,0.7,0.6,0.7
		c0.1,0,0.5-0.1,1.1-0.2c0.6-0.1,1.1-0.2,1.6-0.2c3-0.3,5.8-0.6,8.4-0.7c2.6-0.2,5.2-0.2,7.8-0.2c-0.8,3.9-1.6,7.2-2.4,9.9
		c-0.8,2.7-1.8,4.8-2.8,6.4c-1.1,1.6-2.4,2.8-3.8,3.5c-1.5,0.7-3.3,1.1-5.4,1.1c-1,0-2-0.1-2.9-0.4c-1-0.3-1.9-0.8-2.8-1.5
		c-0.9-0.7-1.8-1.6-2.6-2.7c-0.8-1.1-1.6-2.6-2.3-4.3l-0.8,0.4c0.4,1.1,0.9,2.4,1.7,3.7c0.7,1.3,1.6,2.6,2.7,3.7
		c1.1,1.1,2.4,2.1,3.9,2.9c1.5,0.8,3.2,1.2,5.2,1.2c2.6,0,4.9-0.7,6.7-2c1.8-1.3,3.3-3.1,4.5-5.3c1.2-2.2,2.2-4.7,2.9-7.4
		c0.7-2.8,1.4-5.6,2-8.5c0-0.2,0-0.4,0.1-0.6c1.4,0,2.8,0,4.2,0c1.4,0,2.9,0,4.6,0.1c0.9,0,1.3-0.5,1.3-1.6c0-0.3-0.4-0.6-1.3-0.7
		c-0.8-0.2-1.8-0.3-2.9-0.4c-1.1-0.1-2.1-0.1-3-0.1c-1,0-1.5,0-1.7,0H51.2L51.2,65.8z M77.7,6c0.8,0.4,1.2,1,1.2,1.8
		c0,0.6-0.2,1.3-0.6,2.1c-0.4,0.8-1.2,1.5-2.3,2.3c-1.2,0.7-2.8,1.4-4.8,2c-2.1,0.6-4.8,0.9-8.1,1.1c1.5-3,3.1-5.4,5-7.2
		c1.9-1.8,4-2.7,6.5-2.7C75.9,5.3,76.9,5.5,77.7,6L77.7,6z M77.9,64C77,64.1,76,64.2,75,64.2c-0.4,0-0.7,0-0.9-0.1
		c-0.3,0-0.5-0.1-0.8-0.2c-0.1-1.7-0.3-3-0.7-4c-0.4-1-1-1.5-1.9-1.5c-0.6,0-1,0.3-1.3,0.8C69.1,59.6,69,60.3,69,61
		c0,2.7,0.9,4.6,2.8,5.7c-0.1,1.9-0.3,3.7-0.7,5.3c-0.4,1.6-0.8,2.9-1.3,4.1c-0.5,1.1-0.9,2.1-1.2,2.8c-0.4,0.7-0.6,1.2-0.6,1.4
		c0,0.5,0.3,0.7,0.8,0.7c0.3-0.4,0.7-1,1.2-1.9s0.9-1.9,1.4-3.2c0.5-1.2,0.9-2.6,1.2-4c0.4-1.5,0.6-3,0.7-4.5
		c0.4,0.1,0.8,0.1,1.1,0.2c0.4,0,0.7,0.1,1.1,0.1c1.3,0,2.2-0.1,2.9-0.2c0.7-0.1,1.3-0.2,1.7-0.2c0.2,0,0.4,0,0.6,0.1
		c0.3,0,0.6,0.1,0.8,0.3c0.3,0.2,0.5,0.4,0.7,0.7c0.2,0.3,0.3,0.7,0.3,1.2c0,0.6-0.1,1.4-0.2,2.4c-0.2,1-0.3,2.1-0.5,3.3
		c-0.2,1.2-0.3,2.3-0.5,3.5c-0.2,1.2-0.2,2.2-0.2,3c0,0.7,0.1,1.5,0.2,2.3c0.1,0.8,0.4,1.6,0.7,2.2c0.4,0.7,0.9,1.3,1.5,1.7
		c0.6,0.5,1.5,0.7,2.6,0.7c1.3,0,2.6-0.4,3.9-1.2c1.3-0.8,2.6-1.8,3.8-3.1c1.2-1.3,2.2-2.6,3.1-4.2c0.9-1.5,1.6-3,2-4.5l-0.4-0.2
		c-1.6,2.9-3.3,5.2-5.1,6.9c-1.8,1.7-3.5,2.5-5.2,2.5c-0.9,0-1.6-0.1-2.2-0.4c-0.6-0.3-1-0.7-1.3-1.2c-0.3-0.5-0.5-1.1-0.6-1.7
		c-0.1-0.6-0.2-1.4-0.2-2.2c0-0.3,0.1-0.9,0.2-1.9c0.1-0.9,0.2-2,0.4-3.1c0.1-1.1,0.2-2.2,0.4-3.2c0.1-1,0.2-1.8,0.2-2.2
		c0-0.4,0-0.9-0.1-1.5c-0.1-0.6-0.3-1.2-0.6-1.7c-0.3-0.6-0.7-1.1-1.3-1.5c-0.6-0.4-1.4-0.6-2.4-0.6C79.6,63.8,78.8,63.9,77.9,64
		L77.9,64z M71.1,61.6c0.1-0.1,0.2-0.2,0.3-0.2c0,0.1,0,0.3,0.1,0.4c0,0.1,0.1,0.3,0.1,0.5c0,0.2,0,0.4,0.1,0.6
		c-0.2-0.2-0.2-0.3-0.2-0.5C71.1,62,71,61.7,71.1,61.6L71.1,61.6z M99.4,65.3c-0.3,0.8-0.5,1.8-0.7,3c-0.2,1.2-0.3,2.5-0.4,3.9
		c-0.1,1.4-0.1,2.7-0.1,3.9c0,2.4,0.1,4.3,0.4,5.8c0.3,1.5,0.7,2.7,1.2,3.5c0.5,0.8,1.1,1.4,1.8,1.7c0.7,0.3,1.4,0.5,2.3,0.5
		c1.2,0,2.3-0.3,3.3-0.8c1-0.5,1.9-1.2,2.8-2c0.8-0.8,1.6-1.7,2.2-2.7c0.7-1,1.2-2,1.7-2.9c0.5-0.9,0.9-1.8,1.2-2.6
		c0.3-0.8,0.6-1.4,0.7-1.8l-0.4-0.2c-0.6,1.2-1.3,2.4-2,3.6c-0.8,1.2-1.6,2.3-2.5,3.2c-0.9,0.9-1.8,1.7-2.7,2.3
		c-1,0.6-1.9,0.9-2.9,0.9s-1.8-0.6-2.5-1.7c-0.7-1.1-1-3.1-1-5.9c0-2.1,0-3.8,0.1-5.2c0.1-1.4,0.2-2.5,0.4-3.4
		c0.1-0.9,0.3-1.5,0.4-1.9c0.1-0.4,0.1-0.6,0.1-0.6s-0.1-0.2-0.2-0.4c-0.1-0.2-0.3-0.4-0.5-0.6c-0.2-0.2-0.5-0.4-0.8-0.6
		c-0.3-0.2-0.6-0.3-0.9-0.3C100,64.2,99.7,64.6,99.4,65.3L99.4,65.3z M99.3,50.5c-0.6,0.7-0.9,1.6-0.9,2.9c0,1.1,0.3,2,0.9,2.5
		c0.6,0.5,1.3,0.8,2,0.8c0.9,0,1.7-0.3,2.3-0.9c0.6-0.6,0.9-1.5,0.9-2.7c0-1-0.2-1.8-0.7-2.5c-0.4-0.7-1.1-1-2.1-1
		S100,49.8,99.3,50.5L99.3,50.5z M129.7,63.2c-2.2,0-4.3,0.5-6.3,1.4c-2,0.9-3.8,2.1-5.3,3.7c-1.5,1.5-2.8,3.2-3.7,5.1
		c-0.9,1.9-1.4,3.9-1.4,5.9c0,1.2,0.2,2.2,0.6,3.2c0.4,0.9,0.9,1.8,1.6,2.5s1.5,1.2,2.4,1.6c0.9,0.4,1.9,0.5,2.9,0.5
		c1.3,0,2.6-0.3,3.9-0.8c1.2-0.6,2.4-1.3,3.4-2.2c1-0.9,2-2,2.8-3.2c0.8-1.2,1.5-2.4,2.1-3.7c1.1,3.4,2.5,6.1,4.1,7.9
		c1.6,1.8,3.5,2.7,5.6,2.7c1,0,1.9-0.3,2.8-0.9c0.9-0.6,1.7-1.3,2.4-2.1c0.7-0.8,1.3-1.8,1.9-2.7c0.6-1,1.1-1.9,1.4-2.7
		c0.4-0.8,0.8-1.8,1.2-2.9l-0.5-0.2c-0.3,0.6-0.8,1.4-1.3,2.3c-0.6,0.9-1.2,1.9-2,2.8c-0.7,0.9-1.5,1.7-2.3,2.4
		c-0.8,0.7-1.7,1-2.5,1c-1,0-1.9-0.4-2.7-1.1c-0.8-0.7-1.6-1.7-2.2-3c-0.7-1.3-1.3-2.7-1.8-4.4c-0.5-1.7-1-3.5-1.3-5.4
		c0.7-2,1.4-4.4,2.2-7.1c0.8-2.7,1.6-5.8,2.5-9.4c1-4.2,1.7-8.3,2.2-12.3c0.4-4,0.6-7.6,0.6-10.8c0-5.5-0.4-9.6-1.1-12.2
		c-0.7-2.6-1.8-4-3.3-4c-1,0-1.9,0.6-2.7,1.9c-0.8,1.2-1.5,2.9-2.1,5c-0.6,2.1-1.2,4.5-1.6,7.3c-0.4,2.8-0.8,5.7-1.1,8.7
		c-0.3,3-0.5,6.1-0.6,9.3c-0.1,3.1-0.2,6.1-0.2,9c0,1.3,0,2.6,0,3.8c0,1.2,0.1,2.4,0.2,3.5l0,0H129.7L129.7,63.2z M138.6,18.8
		c0.4,0.8,0.6,2,0.9,3.5c0.2,1.5,0.4,3.4,0.5,5.5c0.1,2.2,0.2,4.6,0.2,7.3c0,3.3-0.2,6.5-0.5,9.5c-0.3,3.1-0.7,6-1.2,8.7
		c-0.5,2.7-1.1,5.3-1.7,7.7c-0.6,2.4-1.2,4.5-1.8,6.4c-0.4-2.7-0.7-5.4-0.9-8.2s-0.3-5.3-0.3-7.6c0-2,0-4.2,0.1-6.7
		c0.1-2.5,0.2-5,0.3-7.5c0.1-2.5,0.3-5,0.5-7.4c0.2-2.4,0.4-4.5,0.7-6.4c0.3-1.9,0.6-3.3,0.9-4.5c0.3-1.1,0.7-1.7,1.2-1.7
		C137.8,17.6,138.3,18,138.6,18.8L138.6,18.8z M118.6,81.4c-1.1-1.4-1.7-3.1-1.7-5.2c0-1.2,0.2-2.5,0.7-3.7c0.5-1.3,1.2-2.4,2.1-3.4
		c0.9-1,2.2-1.9,3.6-2.5c1.5-0.6,3.2-1,5.3-1c0.7,0,1.4,0.1,2,0.4c0.2,1.7,0.4,3.3,0.7,4.8c0.2,1.5,0.6,3,0.9,4.4
		c-0.4,0.9-0.9,1.9-1.5,2.8c-0.6,1-1.2,1.9-2,2.7c-0.7,0.8-1.6,1.5-2.5,2c-0.9,0.5-2,0.8-3.3,0.8C121.2,83.4,119.7,82.7,118.6,81.4
		L118.6,81.4z M173.2,68c0.6-0.2,0.9-0.6,0.9-1.2c0-0.3-0.1-0.6-0.4-1.1c-0.3-0.5-0.7-0.9-1.4-1.4c-0.6-0.5-1.5-0.8-2.5-1.2
		c-1-0.3-2.3-0.5-3.9-0.5c-2.1,0-4.1,0.5-6,1.5c-1.9,1-3.6,2.3-5.1,3.9c-1.5,1.6-2.7,3.4-3.5,5.4c-0.9,2-1.3,4-1.3,6
		c0,1.2,0.2,2.3,0.5,3.4c0.3,1.1,0.8,2,1.3,2.8c0.6,0.8,1.3,1.4,2.1,1.9c0.8,0.5,1.8,0.7,2.8,0.7c1.8,0,3.5-0.5,5.1-1.4
		c1.6-1,3-2.2,4.2-3.6c0.7,1.7,1.7,2.9,2.9,3.5c1.2,0.7,2.2,1,3.2,1c1.3,0,2.6-0.3,3.8-1c1.2-0.7,2.3-1.5,3.3-2.6
		c1-1.1,1.9-2.4,2.7-3.8c0.8-1.4,1.4-2.9,1.9-4.4l-0.4-0.2c-0.6,1.1-1.3,2.3-2.1,3.3c-0.7,1.1-1.5,2-2.4,2.9c-0.8,0.8-1.8,1.5-2.7,2
		c-1,0.5-2,0.7-3.1,0.7c-1.3,0-2.4-0.3-3.4-0.8c-1-0.6-1.7-1.4-2.2-2.7c0.9-1.4,1.5-2.8,2-4.3c0.5-1.5,0.7-3,0.7-4.3
		c0-1.1-0.2-1.9-0.6-2.3c-0.4-0.4-0.8-0.7-1.1-0.7c-0.3,0-0.6,0.1-1,0.3c-0.4,0.2-0.8,0.6-1.2,1.2c-0.4,0.6-0.7,1.4-0.9,2.5
		c-0.3,1.1-0.4,2.4-0.4,4.1c0,1.6,0.1,2.9,0.4,4c-0.7,0.9-1.6,1.6-2.6,2.1c-1,0.5-2.3,0.8-3.6,0.8c-1.8,0-3.2-0.7-4.3-2
		c-1.1-1.3-1.6-3.1-1.6-5.1c0-1.3,0.3-2.8,0.9-4.3c0.6-1.5,1.4-2.9,2.4-4.2c1-1.3,2.2-2.3,3.7-3.2c1.4-0.8,3-1.3,4.6-1.3
		c1.2,0,2.1,0.2,2.9,0.6c0.7,0.4,1.3,0.9,1.8,1.3c0.5,0.5,0.9,0.9,1.2,1.3c0.3,0.4,0.6,0.6,1,0.6C172.1,68.3,172.6,68.2,173.2,68
		L173.2,68z M167.2,73c0.3-0.9,0.7-1.3,1-1.3c0.4,0,0.5,0.5,0.5,1.5c0,0.8-0.1,1.8-0.4,3c-0.3,1.2-0.7,2.3-1.3,3.4
		c-0.2-0.9-0.4-2.1-0.4-3.4C166.7,74.9,166.8,73.8,167.2,73L167.2,73z"/>
	<path fill="none" stroke="#000000" stroke-width="0.2984" stroke-miterlimit="4.967" d="M51.2,65.8c0.7-3.9,1.5-7.9,2.2-12.1
		c0.7-4.2,1.5-8.4,2.3-12.6c0.8-4.2,1.7-8.2,2.7-12c1-3.9,2.1-7.4,3.3-10.5c3-0.2,5.8-0.6,8.3-1.4c2.5-0.8,4.7-1.7,6.6-2.8
		c1.8-1.1,3.3-2.4,4.3-3.7c1-1.4,1.5-2.7,1.5-4c0-1.1-0.5-2.2-1.4-3.1c-0.9-0.9-2.5-1.4-4.7-1.4c-1.6,0-3.1,0.3-4.5,0.9
		c-1.4,0.6-2.8,1.5-4,2.7c-1.3,1.1-2.5,2.5-3.7,4.1c-1.2,1.6-2.3,3.4-3.3,5.4h-1.4c-1.1,0-2.4-0.1-4-0.2c-1.5-0.1-3.2-0.3-5-0.5
		c-1.8-0.2-3.7-0.3-5.7-0.5c-2-0.1-4-0.2-6.1-0.2c-5,0-9.8,0.8-14.2,2.5c-4.4,1.7-8.3,4-11.5,7C9.6,26.4,7,30,5.2,34.2
		C3.3,38.4,2.3,43,2.3,48.1c0,2.3,0.2,4.4,0.5,6.2c0.3,1.8,0.7,3.5,1.2,4.9c0.5,1.4,1,2.6,1.6,3.6c0.6,1,1.1,1.8,1.7,2.4L8,64.4
		c-0.5-0.6-1-1.3-1.5-2.2c-0.5-0.9-1-1.9-1.4-3.2c-0.4-1.3-0.7-2.7-1-4.4c-0.3-1.7-0.4-3.6-0.4-5.7c0-5.3,0.9-9.9,2.8-13.8
		c1.9-3.9,4.4-7.2,7.6-9.8c3.2-2.6,6.9-4.5,11.2-5.8c4.3-1.3,8.8-1.9,13.6-1.9c1.8,0,3.6,0.1,5.5,0.1c1.9,0.1,3.7,0.2,5.5,0.3
		c1.8,0.1,3.4,0.2,5,0.3c1.6,0.1,2.9,0.1,4.1,0.1c-2.1,4.6-3.9,9.7-5.3,15.3S51,45.3,50,51.3c-0.5,2.8-0.9,5.4-1.4,7.8
		c-0.4,2.4-0.9,4.6-1.3,6.8c-1.9,0-3.8,0.1-5.5,0.1c-1.8,0.1-3.4,0.1-4.8,0.2c-1.4,0.1-2.7,0.1-3.8,0.2c-1.1,0.1-2,0.1-2.6,0.1
		c-1,0-1.8,0.3-2.4,0.9c-0.6,0.6-0.9,1.2-0.9,1.6c0,0.5,0.2,0.7,0.6,0.7c0.1,0,0.5-0.1,1.1-0.2c0.6-0.1,1.1-0.2,1.6-0.2
		c3-0.3,5.8-0.6,8.4-0.7c2.6-0.2,5.2-0.2,7.8-0.2c-0.8,3.9-1.6,7.2-2.4,9.9c-0.8,2.7-1.8,4.8-2.8,6.4c-1.1,1.6-2.4,2.8-3.8,3.5
		c-1.5,0.7-3.3,1.1-5.4,1.1c-1,0-2-0.1-2.9-0.4c-1-0.3-1.9-0.8-2.8-1.5c-0.9-0.7-1.8-1.6-2.6-2.7c-0.8-1.1-1.6-2.6-2.3-4.3l-0.8,0.4
		c0.4,1.1,0.9,2.4,1.7,3.7c0.7,1.3,1.6,2.6,2.7,3.7c1.1,1.1,2.4,2.1,3.9,2.9c1.5,0.8,3.2,1.2,5.2,1.2c2.6,0,4.9-0.7,6.7-2
		c1.8-1.3,3.3-3.1,4.5-5.3c1.2-2.2,2.2-4.7,2.9-7.4c0.7-2.8,1.4-5.6,2-8.5c0-0.2,0-0.4,0.1-0.6c1.4,0,2.8,0,4.2,0
		c1.4,0,2.9,0,4.6,0.1c0.9,0,1.3-0.5,1.3-1.6c0-0.3-0.4-0.6-1.3-0.7c-0.8-0.2-1.8-0.3-2.9-0.4c-1.1-0.1-2.1-0.1-3-0.1
		c-1,0-1.5,0-1.7,0H51.2L51.2,65.8z M77.7,6c0.8,0.4,1.2,1,1.2,1.8c0,0.6-0.2,1.3-0.6,2.1c-0.4,0.8-1.2,1.5-2.3,2.3
		c-1.2,0.7-2.8,1.4-4.8,2c-2.1,0.6-4.8,0.9-8.1,1.1c1.5-3,3.1-5.4,5-7.2c1.9-1.8,4-2.7,6.5-2.7C75.9,5.3,76.9,5.5,77.7,6L77.7,6z
		 M77.9,64C77,64.1,76,64.2,75,64.2c-0.4,0-0.7,0-0.9-0.1c-0.3,0-0.5-0.1-0.8-0.2c-0.1-1.7-0.3-3-0.7-4c-0.4-1-1-1.5-1.9-1.5
		c-0.6,0-1,0.3-1.3,0.8C69.1,59.6,69,60.3,69,61c0,2.7,0.9,4.6,2.8,5.7c-0.1,1.9-0.3,3.7-0.7,5.3c-0.4,1.6-0.8,2.9-1.3,4.1
		c-0.5,1.1-0.9,2.1-1.2,2.8c-0.4,0.7-0.6,1.2-0.6,1.4c0,0.5,0.3,0.7,0.8,0.7c0.3-0.4,0.7-1,1.2-1.9s0.9-1.9,1.4-3.2
		c0.5-1.2,0.9-2.6,1.2-4c0.4-1.5,0.6-3,0.7-4.5c0.4,0.1,0.8,0.1,1.1,0.2c0.4,0,0.7,0.1,1.1,0.1c1.3,0,2.2-0.1,2.9-0.2
		c0.7-0.1,1.3-0.2,1.7-0.2c0.2,0,0.4,0,0.6,0.1c0.3,0,0.6,0.1,0.8,0.3c0.3,0.2,0.5,0.4,0.7,0.7c0.2,0.3,0.3,0.7,0.3,1.2
		c0,0.6-0.1,1.4-0.2,2.4c-0.2,1-0.3,2.1-0.5,3.3c-0.2,1.2-0.3,2.3-0.5,3.5c-0.2,1.2-0.2,2.2-0.2,3c0,0.7,0.1,1.5,0.2,2.3
		c0.1,0.8,0.4,1.6,0.7,2.2c0.4,0.7,0.9,1.3,1.5,1.7c0.6,0.5,1.5,0.7,2.6,0.7c1.3,0,2.6-0.4,3.9-1.2c1.3-0.8,2.6-1.8,3.8-3.1
		c1.2-1.3,2.2-2.6,3.1-4.2c0.9-1.5,1.6-3,2-4.5l-0.4-0.2c-1.6,2.9-3.3,5.2-5.1,6.9c-1.8,1.7-3.5,2.5-5.2,2.5c-0.9,0-1.6-0.1-2.2-0.4
		c-0.6-0.3-1-0.7-1.3-1.2c-0.3-0.5-0.5-1.1-0.6-1.7c-0.1-0.6-0.2-1.4-0.2-2.2c0-0.3,0.1-0.9,0.2-1.9c0.1-0.9,0.2-2,0.4-3.1
		c0.1-1.1,0.2-2.2,0.4-3.2c0.1-1,0.2-1.8,0.2-2.2c0-0.4,0-0.9-0.1-1.5c-0.1-0.6-0.3-1.2-0.6-1.7c-0.3-0.6-0.7-1.1-1.3-1.5
		c-0.6-0.4-1.4-0.6-2.4-0.6C79.6,63.8,78.8,63.9,77.9,64L77.9,64z M71.1,61.6c0.1-0.1,0.2-0.2,0.3-0.2c0,0.1,0,0.3,0.1,0.4
		c0,0.1,0.1,0.3,0.1,0.5c0,0.2,0,0.4,0.1,0.6c-0.2-0.2-0.2-0.3-0.2-0.5C71.1,62,71,61.7,71.1,61.6L71.1,61.6z M99.4,65.3
		c-0.3,0.8-0.5,1.8-0.7,3c-0.2,1.2-0.3,2.5-0.4,3.9c-0.1,1.4-0.1,2.7-0.1,3.9c0,2.4,0.1,4.3,0.4,5.8c0.3,1.5,0.7,2.7,1.2,3.5
		c0.5,0.8,1.1,1.4,1.8,1.7c0.7,0.3,1.4,0.5,2.3,0.5c1.2,0,2.3-0.3,3.3-0.8c1-0.5,1.9-1.2,2.8-2c0.8-0.8,1.6-1.7,2.2-2.7
		c0.7-1,1.2-2,1.7-2.9c0.5-0.9,0.9-1.8,1.2-2.6c0.3-0.8,0.6-1.4,0.7-1.8l-0.4-0.2c-0.6,1.2-1.3,2.4-2,3.6c-0.8,1.2-1.6,2.3-2.5,3.2
		c-0.9,0.9-1.8,1.7-2.7,2.3c-1,0.6-1.9,0.9-2.9,0.9s-1.8-0.6-2.5-1.7c-0.7-1.1-1-3.1-1-5.9c0-2.1,0-3.8,0.1-5.2
		c0.1-1.4,0.2-2.5,0.4-3.4c0.1-0.9,0.3-1.5,0.4-1.9c0.1-0.4,0.1-0.6,0.1-0.6s-0.1-0.2-0.2-0.4c-0.1-0.2-0.3-0.4-0.5-0.6
		c-0.2-0.2-0.5-0.4-0.8-0.6c-0.3-0.2-0.6-0.3-0.9-0.3C100,64.2,99.7,64.6,99.4,65.3L99.4,65.3z M99.3,50.5c-0.6,0.7-0.9,1.6-0.9,2.9
		c0,1.1,0.3,2,0.9,2.5c0.6,0.5,1.3,0.8,2,0.8c0.9,0,1.7-0.3,2.3-0.9c0.6-0.6,0.9-1.5,0.9-2.7c0-1-0.2-1.8-0.7-2.5
		c-0.4-0.7-1.1-1-2.1-1S100,49.8,99.3,50.5L99.3,50.5z M129.7,63.2c-2.2,0-4.3,0.5-6.3,1.4c-2,0.9-3.8,2.1-5.3,3.7
		c-1.5,1.5-2.8,3.2-3.7,5.1c-0.9,1.9-1.4,3.9-1.4,5.9c0,1.2,0.2,2.2,0.6,3.2c0.4,0.9,0.9,1.8,1.6,2.5s1.5,1.2,2.4,1.6
		c0.9,0.4,1.9,0.5,2.9,0.5c1.3,0,2.6-0.3,3.9-0.8c1.2-0.6,2.4-1.3,3.4-2.2c1-0.9,2-2,2.8-3.2c0.8-1.2,1.5-2.4,2.1-3.7
		c1.1,3.4,2.5,6.1,4.1,7.9c1.6,1.8,3.5,2.7,5.6,2.7c1,0,1.9-0.3,2.8-0.9c0.9-0.6,1.7-1.3,2.4-2.1c0.7-0.8,1.3-1.8,1.9-2.7
		c0.6-1,1.1-1.9,1.4-2.7c0.4-0.8,0.8-1.8,1.2-2.9l-0.5-0.2c-0.3,0.6-0.8,1.4-1.3,2.3c-0.6,0.9-1.2,1.9-2,2.8
		c-0.7,0.9-1.5,1.7-2.3,2.4c-0.8,0.7-1.7,1-2.5,1c-1,0-1.9-0.4-2.7-1.1c-0.8-0.7-1.6-1.7-2.2-3c-0.7-1.3-1.3-2.7-1.8-4.4
		c-0.5-1.7-1-3.5-1.3-5.4c0.7-2,1.4-4.4,2.2-7.1c0.8-2.7,1.6-5.8,2.5-9.4c1-4.2,1.7-8.3,2.2-12.3c0.4-4,0.6-7.6,0.6-10.8
		c0-5.5-0.4-9.6-1.1-12.2c-0.7-2.6-1.8-4-3.3-4c-1,0-1.9,0.6-2.7,1.9c-0.8,1.2-1.5,2.9-2.1,5c-0.6,2.1-1.2,4.5-1.6,7.3
		c-0.4,2.8-0.8,5.7-1.1,8.7c-0.3,3-0.5,6.1-0.6,9.3c-0.1,3.1-0.2,6.1-0.2,9c0,1.3,0,2.6,0,3.8c0,1.2,0.1,2.4,0.2,3.5l0,0H129.7
		L129.7,63.2z M138.6,18.8c0.4,0.8,0.6,2,0.9,3.5c0.2,1.5,0.4,3.4,0.5,5.5c0.1,2.2,0.2,4.6,0.2,7.3c0,3.3-0.2,6.5-0.5,9.5
		c-0.3,3.1-0.7,6-1.2,8.7c-0.5,2.7-1.1,5.3-1.7,7.7c-0.6,2.4-1.2,4.5-1.8,6.4c-0.4-2.7-0.7-5.4-0.9-8.2s-0.3-5.3-0.3-7.6
		c0-2,0-4.2,0.1-6.7c0.1-2.5,0.2-5,0.3-7.5c0.1-2.5,0.3-5,0.5-7.4c0.2-2.4,0.4-4.5,0.7-6.4c0.3-1.9,0.6-3.3,0.9-4.5
		c0.3-1.1,0.7-1.7,1.2-1.7C137.8,17.6,138.3,18,138.6,18.8L138.6,18.8z M118.6,81.4c-1.1-1.4-1.7-3.1-1.7-5.2c0-1.2,0.2-2.5,0.7-3.7
		c0.5-1.3,1.2-2.4,2.1-3.4c0.9-1,2.2-1.9,3.6-2.5c1.5-0.6,3.2-1,5.3-1c0.7,0,1.4,0.1,2,0.4c0.2,1.7,0.4,3.3,0.7,4.8
		c0.2,1.5,0.6,3,0.9,4.4c-0.4,0.9-0.9,1.9-1.5,2.8c-0.6,1-1.2,1.9-2,2.7c-0.7,0.8-1.6,1.5-2.5,2c-0.9,0.5-2,0.8-3.3,0.8
		C121.2,83.4,119.7,82.7,118.6,81.4L118.6,81.4z M173.2,68c0.6-0.2,0.9-0.6,0.9-1.2c0-0.3-0.1-0.6-0.4-1.1c-0.3-0.5-0.7-0.9-1.4-1.4
		c-0.6-0.5-1.5-0.8-2.5-1.2c-1-0.3-2.3-0.5-3.9-0.5c-2.1,0-4.1,0.5-6,1.5c-1.9,1-3.6,2.3-5.1,3.9c-1.5,1.6-2.7,3.4-3.5,5.4
		c-0.9,2-1.3,4-1.3,6c0,1.2,0.2,2.3,0.5,3.4c0.3,1.1,0.8,2,1.3,2.8c0.6,0.8,1.3,1.4,2.1,1.9c0.8,0.5,1.8,0.7,2.8,0.7
		c1.8,0,3.5-0.5,5.1-1.4c1.6-1,3-2.2,4.2-3.6c0.7,1.7,1.7,2.9,2.9,3.5c1.2,0.7,2.2,1,3.2,1c1.3,0,2.6-0.3,3.8-1
		c1.2-0.7,2.3-1.5,3.3-2.6c1-1.1,1.9-2.4,2.7-3.8c0.8-1.4,1.4-2.9,1.9-4.4l-0.4-0.2c-0.6,1.1-1.3,2.3-2.1,3.3
		c-0.7,1.1-1.5,2-2.4,2.9c-0.8,0.8-1.8,1.5-2.7,2c-1,0.5-2,0.7-3.1,0.7c-1.3,0-2.4-0.3-3.4-0.8c-1-0.6-1.7-1.4-2.2-2.7
		c0.9-1.4,1.5-2.8,2-4.3c0.5-1.5,0.7-3,0.7-4.3c0-1.1-0.2-1.9-0.6-2.3c-0.4-0.4-0.8-0.7-1.1-0.7c-0.3,0-0.6,0.1-1,0.3
		c-0.4,0.2-0.8,0.6-1.2,1.2c-0.4,0.6-0.7,1.4-0.9,2.5c-0.3,1.1-0.4,2.4-0.4,4.1c0,1.6,0.1,2.9,0.4,4c-0.7,0.9-1.6,1.6-2.6,2.1
		c-1,0.5-2.3,0.8-3.6,0.8c-1.8,0-3.2-0.7-4.3-2c-1.1-1.3-1.6-3.1-1.6-5.1c0-1.3,0.3-2.8,0.9-4.3c0.6-1.5,1.4-2.9,2.4-4.2
		c1-1.3,2.2-2.3,3.7-3.2c1.4-0.8,3-1.3,4.6-1.3c1.2,0,2.1,0.2,2.9,0.6c0.7,0.4,1.3,0.9,1.8,1.3c0.5,0.5,0.9,0.9,1.2,1.3
		c0.3,0.4,0.6,0.6,1,0.6C172.1,68.3,172.6,68.2,173.2,68L173.2,68z M167.2,73c0.3-0.9,0.7-1.3,1-1.3c0.4,0,0.5,0.5,0.5,1.5
		c0,0.8-0.1,1.8-0.4,3c-0.3,1.2-0.7,2.3-1.3,3.4c-0.2-0.9-0.4-2.1-0.4-3.4C166.7,74.9,166.8,73.8,167.2,73L167.2,73z"/>
</g>
</svg>
